<svg xmlns="http://www.w3.org/2000/svg" width="33" height="24" fill="none"><path fill="#FFC500" d="M2.223.084a1.697 1.697 0 0 0-.078.027c.026-.01.051-.019.078-.027zm-.157.055zM2.143.11c-.025.009-.051.017-.077.028l.077-.029zM2.531 0zm-.155.04c-.026.005-.05.013-.076.02.025-.007.05-.016.076-.022zm29.722 3.1v17.64c0 .045 0 .09-.003.136l-.001.017v.011c0 .007 0 .015-.002.022a.626.626 0 0 1-.005.078.523.523 0 0 1-.006.057 1.108 1.108 0 0 1-.011.103c0 .014-.004.027-.006.04l-.003.021a.831.831 0 0 1-.013.074c0 .01-.003.02-.005.03v.005a.62.62 0 0 1-.017.087l-.004.02a.61.61 0 0 1-.014.058c0 .004-.002.008-.003.011a.578.578 0 0 1-.017.069l-.014.052-.005.013a.83.83 0 0 1-.035.111l-.02.063-.02.054c0 .002 0 .005-.003.007a1.55 1.55 0 0 1-.024.063l-.032.076-.015.032a2.28 2.28 0 0 1-.098.201l-.006.012a1.324 1.324 0 0 1-.06.104 1.893 1.893 0 0 1-.054.088c0 .004-.003.01-.006.014l-.023.034a.647.647 0 0 1-.047.07l-.021.03a.347.347 0 0 1-.026.035.467.467 0 0 1-.033.044.915.915 0 0 1-.059.075 2.234 2.234 0 0 1-.175.2 2.49 2.49 0 0 1-.209.201 1.275 1.275 0 0 1-.09.076c-.033.029-.068.055-.103.082a2.286 2.286 0 0 1-.144.102 2.16 2.16 0 0 1-.111.07.023.023 0 0 1-.01.007 3.357 3.357 0 0 1-.386.2l-.026.011a3.087 3.087 0 0 1-.086.034l-.037.015-.024.008c-.084.031-.17.058-.257.082l-.028.008-.017.004a2.425 2.425 0 0 1-.142.033l-.04.009a1.335 1.335 0 0 1-.123.02l-.003.002a.037.037 0 0 1-.012.002c-.011 0-.023.003-.034.004l-.032.004a2.784 2.784 0 0 1-.25.023h-.003c-.055.004-.11.005-.166.005H3.219a2.52 2.52 0 0 1-.2-.008 2.834 2.834 0 0 1-.604-.094 2.58 2.58 0 0 1-.303-.094 1.948 1.948 0 0 1-.136-.052l-.01-.005a3.04 3.04 0 0 1-.27-.13 1.826 1.826 0 0 1-.195-.113 1.2 1.2 0 0 1-.074-.05c-.006-.002-.011-.006-.016-.01a2.547 2.547 0 0 1-.11-.077l-.013-.01a3.11 3.11 0 0 1-.112-.088l-.018-.015a3.55 3.55 0 0 1-.237-.22 2.67 2.67 0 0 1-.27-.312 3.385 3.385 0 0 1-.333-.543v-.003c-.02-.04-.038-.081-.056-.122a2.364 2.364 0 0 1-.069-.175 2.702 2.702 0 0 1-.047-.139c-.002-.005-.003-.012-.006-.017a2.509 2.509 0 0 1-.035-.127l-.007-.025a1.805 1.805 0 0 1-.03-.13l-.005-.022a3.333 3.333 0 0 1-.026-.148H.036a3.888 3.888 0 0 1-.02-.155l-.001-.02a1.86 1.86 0 0 1-.01-.134v-.025A2.552 2.552 0 0 1 0 20.779V3.145a2.481 2.481 0 0 1 .006-.19 1.38 1.38 0 0 1 .009-.113c0-.015.002-.029.004-.044.004-.04.008-.082.016-.122 0-.014.003-.027.005-.041a2.24 2.24 0 0 1 .036-.185 1.04 1.04 0 0 1 .014-.061c.005-.022.01-.046.017-.068.02-.082.046-.162.075-.243l.033-.092a.362.362 0 0 1 .014-.035l.038-.091a2.564 2.564 0 0 1 .157-.313l.06-.099c.039-.065.082-.13.13-.192a3.067 3.067 0 0 1 .642-.661c.028-.023.058-.046.088-.067l.014-.01a2.27 2.27 0 0 1 .284-.18l.087-.047a2.598 2.598 0 0 1 .227-.108l.05-.02-.05.022v.002C2.068.154 2.28.1 2.55.077c2.32-.186 3.762 2.52 6.079 4.558l.161.139.124.104a5.904 5.904 0 0 0 .252.202 10.542 10.542 0 0 0 .393.293l.135.093c.334.227.73.463 1.199.688.52.25 1.128.483 1.841.67.213.055.436.107.668.154.775.155 1.656.254 2.657.266a14.259 14.259 0 0 0 2.658-.266c.232-.047.455-.099.67-.154.71-.187 1.32-.42 1.84-.67a9.236 9.236 0 0 0 1.198-.688c.453-.308.871-.65 1.265-1.01.157-.146.312-.292.461-.44.826-.816 1.55-1.678 2.269-2.387a9.988 9.988 0 0 1 .393-.372c.13-.118.261-.23.394-.334.725-.569 1.48-.916 2.363-.846l.09.009c.057.006.112.015.164.023l.074.014c.046.008.09.018.128.027l.1.027c-.014-.006-.027-.013-.04-.017l.042.018h.004l.086.039.022.01a.852.852 0 0 1 .073.035c.022.01.044.022.065.033l.023.013c.012.006.023.011.034.019l.033.018a.746.746 0 0 1 .104.062l.088.056c.018.011.036.024.054.037l.023.016c.01.007.022.014.032.023.036.025.07.052.104.079l.034.026.062.053.012.01c.016.012.03.026.046.04l.016.015h.001l.037.034.034.033c.021.021.042.041.062.063l.007.007c.045.046.088.093.13.141l.027.032.04.048a3.095 3.095 0 0 1 .228.32l.004.006c.017.026.033.053.048.08.007.013.016.025.022.04a.851.851 0 0 1 .04.073.324.324 0 0 1 .023.043l.016.032c.013.024.025.05.036.075.013.026.025.053.036.08l.004.01.032.077.02.05.018.05.003.01.032.095.01.026.018.068.014.047.01.036c0 .005.003.012.004.017l.005.023a.81.81 0 0 1 .016.069l.003.01a1.456 1.456 0 0 1 .02.098c.008.042.014.084.02.126v.004l.006.045a.383.383 0 0 1 .008.072l.002.013.002.025c.005.037.007.074.009.11l.002.03v.026c.003.045.004.09.004.134h.002z"/><path fill="#FFC500" d="M32.098 3.14v17.64c0 .046 0 .092-.003.137v.013l-.001.005v.01c0 .008 0 .015-.002.022a.628.628 0 0 1-.005.078.523.523 0 0 1-.006.057 1.105 1.105 0 0 1-.011.103c0 .014-.004.027-.006.04l-.003.021a.837.837 0 0 1-.013.074c0 .01-.003.02-.005.03v.005a.614.614 0 0 1-.017.087l-.004.02-.014.059-.003.01a.578.578 0 0 1-.017.069l-.014.052-.005.013a.838.838 0 0 1-.035.111 1.426 1.426 0 0 1-.02.064l-.02.053c0 .002 0 .005-.003.007a1.492 1.492 0 0 1-.024.063l-.025.06-.007.016-.015.032a2.283 2.283 0 0 1-.098.201l-.006.012a1.901 1.901 0 0 1-.095.166l-.025.04-.023.034a.664.664 0 0 1-.047.07l-.021.03a.36.36 0 0 1-.026.035.434.434 0 0 1-.02.027l-.036.048-.035.044a2.3 2.3 0 0 1-.175.2c-.066.072-.137.14-.21.201a1.275 1.275 0 0 1-.09.076 1.18 1.18 0 0 1-.057.047l-.046.035a2.406 2.406 0 0 1-.144.102 2.16 2.16 0 0 1-.111.07l-.01.007a.257.257 0 0 1-.033.02.485.485 0 0 1-.039.022c-.018.011-.036.022-.054.03l-.007.004a1.649 1.649 0 0 1-.136.07l-.008.004-.105.049h-.005a1.526 1.526 0 0 1-.111.046l-.037.015-.024.008a3 3 0 0 1-.257.082l-.028.008-.017.004a2.425 2.425 0 0 1-.142.033l-.04.009a1.398 1.398 0 0 1-.123.02l-.003.002-.046.006a.313.313 0 0 1-.032.004.764.764 0 0 1-.082.01c-.013 0-.026.003-.038.004h-.01l-.036.003-.084.005h-.003l-.082.004H3.22a2.52 2.52 0 0 1-.2-.007 2.805 2.805 0 0 1-.604-.094 2.58 2.58 0 0 1-.303-.094 1.948 1.948 0 0 1-.136-.052l-.01-.005a2.942 2.942 0 0 1-.27-.13 1.826 1.826 0 0 1-.195-.113 1.2 1.2 0 0 1-.074-.05c-.006-.002-.011-.006-.016-.01a2.547 2.547 0 0 1-.11-.077l-.013-.01a3.11 3.11 0 0 1-.112-.088l-.018-.015a3.55 3.55 0 0 1-.237-.22 2.67 2.67 0 0 1-.27-.312 3.385 3.385 0 0 1-.333-.543v-.003c-.02-.04-.038-.081-.056-.122a2.364 2.364 0 0 1-.069-.175 2.702 2.702 0 0 1-.047-.139c-.002-.005-.003-.012-.006-.017a2.509 2.509 0 0 1-.035-.127l-.007-.025a1.805 1.805 0 0 1-.03-.13l-.005-.022a3.333 3.333 0 0 1-.026-.148H.036a3.888 3.888 0 0 1-.02-.155l-.001-.02a1.86 1.86 0 0 1-.01-.134v-.025A2.552 2.552 0 0 1 0 20.779V3.146c0-.052.001-.104.004-.154a1.38 1.38 0 0 1 .01-.149c0-.015.003-.029.005-.043.004-.042.008-.083.016-.123 0-.014.003-.027.005-.041a2.242 2.242 0 0 1 .036-.185A1.04 1.04 0 0 1 .09 2.39c.005-.022.01-.046.017-.068a2.804 2.804 0 0 1 .122-.37l.038-.091a2.562 2.562 0 0 1 .157-.313l.06-.099a3.06 3.06 0 0 1 .2-.285 3.278 3.278 0 0 1 .66-.635l.014-.01a2.932 2.932 0 0 1 .525-.303l.073-.032v.003C2.068.154 2.28.1 2.55.077c2.32-.186 3.762 2.52 6.079 4.558l.161.139.124.104.126.102a10.542 10.542 0 0 0 .52.393l.134.093c.334.227.73.463 1.199.688.52.25 1.128.483 1.841.67.213.055.436.107.668.154.775.155 1.656.254 2.657.266a14.258 14.258 0 0 0 2.658-.266c.232-.047.455-.099.67-.154.71-.187 1.32-.42 1.84-.67a9.236 9.236 0 0 0 1.198-.688c.453-.308.871-.65 1.265-1.01.157-.146.312-.292.461-.44.826-.816 1.55-1.678 2.269-2.387a9.988 9.988 0 0 1 .393-.372c.13-.118.261-.23.394-.334.725-.569 1.48-.916 2.363-.846l.09.009c.057.006.112.015.164.023l.074.014a2.073 2.073 0 0 1 .23.055h.004l.086.039.022.01a.852.852 0 0 1 .073.035c.022.01.044.022.065.033l.023.013c.012.006.024.011.034.019l.033.018a.99.99 0 0 1 .062.037 2.43 2.43 0 0 1 .13.081c.018.011.036.024.054.037l.023.016.032.023c.036.025.07.052.104.079l.034.026.062.053.012.01c.016.012.03.026.046.04l.016.015.004.003.034.031.034.033c.021.021.042.041.062.063l.007.007c.045.046.088.093.13.141l.027.032.04.048a3.095 3.095 0 0 1 .228.32l.004.006.047.08h.001c.007.013.016.025.022.04a.851.851 0 0 1 .04.073.323.323 0 0 1 .023.043l.016.032c.013.024.025.05.036.075.013.026.025.053.036.08l.004.01.032.077.02.05.018.05.003.01c.015.04.029.081.041.121l.02.068.013.047.01.036c0 .005.003.012.004.017l.005.023a.808.808 0 0 1 .016.069l.003.01a1.456 1.456 0 0 1 .02.098c.008.042.014.084.02.126v.004l.006.045a.383.383 0 0 1 .008.072l.002.013.002.025.003.034c.002.026.005.051.006.077l.002.03v.024c.003.045.004.09.004.134h.002z"/><path fill="#8300FF" d="M32.097 3.14v17.64c0 .046 0 .092-.003.137v.028c0 .008 0 .015-.003.022a.645.645 0 0 1-.005.078.525.525 0 0 1-.005.057 1.074 1.074 0 0 1-.012.103c0 .014-.003.027-.005.04l-.004.021a.831.831 0 0 1-.012.074l-.006.03v.005a2.25 2.25 0 0 1-.016.087c-.003.006-.004.013-.005.02-.004.02-.01.039-.013.059l-.004.01-.016.069c-.006.017-.01.035-.015.052l-.004.013c-.009.03-.017.06-.028.088a1.856 1.856 0 0 1-.049.14c0 .003 0 .005-.002.007a2.84 2.84 0 0 1-.05.123l-.02.048a2.28 2.28 0 0 1-.099.201l-.006.012-.012.021a.995.995 0 0 1-.047.084l-.007.012a.798.798 0 0 1-.047.075c0 .005-.004.01-.007.014l-.022.034a.877.877 0 0 1-.048.07l-.021.03a.365.365 0 0 1-.025.035.464.464 0 0 1-.034.044 2.234 2.234 0 0 1-.233.276 2.49 2.49 0 0 1-.21.2 1.275 1.275 0 0 1-.057.05 1.055 1.055 0 0 1-.09.073l-.046.035a2.545 2.545 0 0 1-.144.102l-.093.06a.062.062 0 0 1-.017.01.381.381 0 0 1-.184.105c-.035.018-.069.036-.104.052a3.087 3.087 0 0 1-.258.11c-.008.003-.016.005-.023.009a2.886 2.886 0 0 1-.285.09c-.007 0-.012.002-.017.003-.048.012-.095.024-.143.033l-.04.009a1.335 1.335 0 0 1-.123.02l-.003.002a1.658 1.658 0 0 1-.16.021c-.013 0-.026.002-.038.003h-.01l-.036.003c-.028.002-.056.005-.084.005h-.003a15.41 15.41 0 0 1-.082.004c-.027.002-.055.002-.084.002h-.884L8.627 4.635l.162.14.123.103c.042.034.083.07.126.102a10.475 10.475 0 0 0 .654.487c.334.226.73.463 1.199.687.52.25 1.129.483 1.841.67.214.056.436.107.669.154.774.155 1.655.254 2.656.266a14.26 14.26 0 0 0 2.658-.266c.232-.047.455-.098.67-.154a10.32 10.32 0 0 0 1.84-.67 9.24 9.24 0 0 0 1.198-.687c.453-.308.871-.65 1.265-1.012.158-.143.312-.29.462-.439.825-.816 1.55-1.678 2.268-2.387a10.557 10.557 0 0 1 .393-.372c.13-.117.261-.23.394-.334.725-.569 1.48-.916 2.364-.846l.09.009c.056.006.111.015.163.023l.074.014a2.061 2.061 0 0 1 .23.055h.004l.086.039.022.01.069.033c.002 0 .003 0 .004.002.022.01.044.022.065.033l.023.013c.012.006.023.011.034.019.01.005.023.011.033.018.015.007.03.015.043.024l.02.013a2.524 2.524 0 0 1 .13.081l.053.037c.009.005.016.01.023.016l.032.023c.036.025.07.052.105.08l.033.025a1.53 1.53 0 0 1 .074.063c.016.012.03.026.047.04l.015.015h.002c0 .002.002.002.002.003l.034.032.034.032a2.348 2.348 0 0 1 .266.29 3.088 3.088 0 0 1 .28.406 1.51 1.51 0 0 1 .086.157l.017.032.035.075.036.08.005.01.031.077.02.05.021.06c.011.031.023.063.032.095l.029.094c.004.016.01.031.013.047l.01.036c0 .005.003.012.004.017l.005.023a.808.808 0 0 1 .016.069l.003.01.02.098c.008.042.014.084.02.126v.005c.003.014.005.03.006.044a.4.4 0 0 1 .006.05l.002.022.002.013.002.025c0 .011.003.023.004.035l.005.076.002.03.001.014v.012c.002.044.003.088.003.133h.002z"/><path fill="#FF41E4" d="M30.158 23.736a3.227 3.227 0 0 1-1.28.264H3.22c-.44 0-.861-.089-1.244-.25l-.002-.023c.114.034.326.09.594.11 2.657.215 4.161-3.362 7.144-5.388 1.187-.807 3.162-1.742 6.365-1.777 3.205.035 5.18.971 6.366 1.777 2.984 2.025 4.489 5.602 7.144 5.388.25-.02.45-.069.569-.102h.002z"/><path fill="#fff" d="M30.025.149 29.897.12c.046.009.09.018.128.028zM15.866 15.176c-3.717 0-7.183-2-9.045-5.22l1.39-.804a8.869 8.869 0 0 0 7.655 4.42 8.87 8.87 0 0 0 7.655-4.42l1.39.804a10.478 10.478 0 0 1-9.045 5.22z"/></svg>